Carl Perkins - Original Sun Greatest Hits (1986) 
http://www.discogs.com/Carl-Perkins-Original-Sun-Greatest-Hits/release/2083648

Tracklist:

01. Carl Perkins - Blue Suede Shoes (2:18)
02. Carl Perkins - Honey Don't (2:50)
03. Carl Perkins - Boppin' the Blues (2:49)
04. Carl Perkins - Everybody's Trying to Be My Baby (2:16)
05. Carl Perkins - Movie Magg (2:09)
06. Carl Perkins - Sure to Fall (2:33)
07. Carl Perkins - All Mama's Children (2:08)
08. Carl Perkins - Perkin's Wiggle (2:38)
09. Carl Perkins - Put Your Cat Clothes On (2:53)
10. Carl Perkins - Matchbox (2:10)
11. Carl Perkins - Your True Love (2:44)
12. Carl Perkins - Lend Me Your Comb (1:58)
13. Carl Perkins - Dixie Fried (2:26)
14. Carl Perkins - You Can Do No Wrong (2:24)
15. Carl Perkins - Glad All Over (1:42)
16. Carl Perkins - Gone, Gone, Gone (2:37)

EAC LOG:

Exact Audio Copy V1.0 beta 3 from 29. August 2011

EAC extraction logfile from 5. May 2013, 21:07

Carl Perkins / Original Sun Greatest Hits

Used drive : TSSTcorpCDDVDW TS-L633C Adapter: 0 ID: 0

Read mode : Secure
Utilize accurate stream : Yes
Defeat audio cache : Yes
Make use of C2 pointers : No

Read offset correction : 6
Overread into Lead-In and Lead-Out : No
Fill up missing offset samples with silence : Yes
Delete leading and trailing silent blocks : No
Null samples used in CRC calculations : Yes
Used interface : Native Win32 interface for Win NT & 2000

Used output format : Internal WAV Routines
Sample format : 44.100 Hz; 16 Bit; Stereo


TOC of the extracted CD

 Track | Start | Length | Start sector | End sector 
 ---------------------------------------------------------
 1 | 0:00.00 | 2:17.53 | 0 | 10327 
 2 | 2:17.53 | 2:49.72 | 10328 | 23074 
 3 | 5:07.50 | 2:48.40 | 23075 | 35714 
 4 | 7:56.15 | 2:15.50 | 35715 | 45889 
 5 | 10:11.65 | 2:08.73 | 45890 | 55562 
 6 | 12:20.63 | 2:33.07 | 55563 | 67044 
 7 | 14:53.70 | 2:08.23 | 67045 | 76667 
 8 | 17:02.18 | 2:38.10 | 76668 | 88527 
 9 | 19:40.28 | 2:52.50 | 88528 | 101477 
 10 | 22:33.03 | 2:10.27 | 101478 | 111254 
 11 | 24:43.30 | 2:44.35 | 111255 | 123589 
 12 | 27:27.65 | 1:58.13 | 123590 | 132452 
 13 | 29:26.03 | 2:26.22 | 132453 | 143424 
 14 | 31:52.25 | 2:24.10 | 143425 | 154234 
 15 | 34:16.35 | 1:41.43 | 154235 | 161852 
 16 | 35:58.03 | 2:37.05 | 161853 | 173632 


Range status and errors

Selected range

 Filename D:Carl Perkins - Original Sun Greatest HitsCarl Perkins - Original Sun Greatest Hits.wav

 Peak level 100.0 %
 Extraction speed 3.7 X
 Range quality 100.0 %
 Test CRC 2C04BE37
 Copy CRC 2C04BE37
 Copy OK

No errors occurred


AccurateRip summary

Track 1 accurately ripped (confidence 6) [8E5E44F9] (AR v1)
Track 2 accurately ripped (confidence 5) [CDD23D1B] (AR v1)
Track 3 accurately ripped (confidence 6) [B96A176E] (AR v1)
Track 4 accurately ripped (confidence 6) [8E18919E] (AR v1)
Track 5 accurately ripped (confidence 5) [1CE0F55C] (AR v1)
Track 6 accurately ripped (confidence 5) [BFC4A01B] (AR v1)
Track 7 accurately ripped (confidence 6) [EA049C99] (AR v1)
Track 8 accurately ripped (confidence 7) [F9A0E239] (AR v1)
Track 9 accurately ripped (confidence 7) [187691CB] (AR v1)
Track 10 accurately ripped (confidence 6) [8F4E8F69] (AR v1)
Track 11 accurately ripped (confidence 5) [6BB9AC53] (AR v1)
Track 12 accurately ripped (confidence 7) [4EA7909A] (AR v1)
Track 13 accurately ripped (confidence 7) [65E51FC9] (AR v1)
Track 14 accurately ripped (confidence 7) [F31EA107] (AR v1)
Track 15 accurately ripped (confidence 7) [5917EAE4] (AR v1)
Track 16 accurately ripped (confidence 7) [96AC695D] (AR v1)

All tracks accurately ripped

End of status report

---- CUETools DB Plugin V2.1.4

[CTDB TOCID: yQh9kxRplg6H8WbfyeylS.DqP_w-] found
Submit result: yQh9kxRplg6H8WbfyeylS.DqP_w- has been confirmed
Track | CTDB Status
 1 | (2/2) Accurately ripped
 2 | (2/2) Accurately ripped
 3 | (2/2) Accurately ripped
 4 | (2/2) Accurately ripped
 5 | (2/2) Accurately ripped
 6 | (2/2) Accurately ripped
 7 | (2/2) Accurately ripped
 8 | (2/2) Accurately ripped
 9 | (2/2) Accurately ripped
 10 | (2/2) Accurately ripped
 11 | (2/2) Accurately ripped
 12 | (2/2) Accurately ripped
 13 | (2/2) Accurately ripped
 14 | (2/2) Accurately ripped
 15 | (2/2) Accurately ripped
 16 | (2/2) Accurately ripped


==== Log checksum 5B0BF4B006F0BA3B438A96842425CAC37FF229BA86BFAD4F0030F8E035B85DE3 ====